<svg xmlns="http://www.w3.org/2000/svg" xmlns:xlink="http://www.w3.org/1999/xlink" width="1024" zoomAndPan="magnify" viewBox="0 0 768 767.999994" height="1024" preserveAspectRatio="xMidYMid meet" version="1.0"><defs><clipPath id="56b8fb88ff"><path d="M 110 39 L 717.828125 39 L 717.828125 730 L 110 730 Z M 110 39 " clip-rule="nonzero"/></clipPath><clipPath id="e8a288b9ee"><path d="M 702.394531 349.964844 L 696.105469 343.675781 C 690.207031 337.78125 675.777344 325.703125 668.933594 320.933594 L 612.203125 281.425781 C 587.898438 264.503906 521.507812 221.710938 496.058594 206.570312 L 413.492188 157.449219 C 397.078125 147.683594 351.789062 122.597656 334.800781 113.859375 L 314.792969 103.570312 C 306.09375 99.097656 283.007812 88.484375 273.945312 84.792969 L 253.496094 76.457031 C 244.613281 72.839844 221.105469 64.433594 211.945312 61.597656 L 144.722656 40.789062 C 140.386719 39.449219 133.488281 38.898438 128.996094 39.542969 L 124.996094 40.113281 C 122.742188 40.4375 119.523438 41.667969 117.628906 42.929688 L 115.878906 44.09375 C 114.859375 44.777344 113.742188 46.039062 113.191406 47.136719 L 111.375 50.773438 C 110.277344 52.96875 109.757812 56 110.0625 58.4375 L 110.953125 65.570312 C 111.519531 70.082031 113.777344 74.496094 117.105469 77.597656 L 438.488281 376.660156 C 440.019531 378.085938 441.617188 380.566406 442.277344 382.550781 L 442.851562 384.265625 C 443.199219 385.3125 442.910156 386.46875 442.113281 387.230469 L 370.246094 455.726562 C 340.324219 484.246094 252.90625 565.722656 222.355469 593.566406 L 121.347656 685.625 C 118.832031 687.917969 114.742188 692.914062 112.988281 695.832031 L 111.273438 698.691406 C 110.203125 700.476562 109.714844 702.792969 109.972656 704.859375 L 111.242188 715.03125 C 111.621094 718.035156 113.136719 721.132812 115.277344 723.273438 L 116.992188 724.988281 C 117.988281 725.988281 119.683594 726.984375 121.039062 727.371094 L 127.875 729.324219 C 132.03125 730.511719 137.359375 730.398438 141.460938 729.03125 L 214.597656 704.648438 C 237.214844 697.113281 291.554688 675.210938 313.078125 664.964844 L 337.089844 653.53125 C 347.421875 648.609375 374.238281 634.554688 384.164062 628.855469 L 434.371094 600.03125 C 455.503906 587.898438 512.746094 553.011719 533.210938 539.785156 L 604.410156 493.78125 C 616.730469 485.820312 648.925781 463.386719 660.660156 454.582031 L 677.753906 441.765625 C 682.46875 438.230469 693.082031 429.023438 697.25 424.855469 L 701.820312 420.28125 C 704.207031 417.898438 707.78125 412.941406 709.289062 409.925781 L 712.414062 403.667969 C 714.046875 400.410156 716.015625 394.101562 716.53125 390.492188 L 717.511719 383.636719 C 717.71875 382.171875 717.566406 380.683594 717.058594 379.292969 L 711.722656 364.613281 C 710.019531 359.933594 705.914062 353.484375 702.394531 349.964844 Z M 702.394531 349.964844 " clip-rule="nonzero"/></clipPath><clipPath id="f549cff17d"><path d="M 0.640625 0 L 607.828125 0 L 607.828125 690.601562 L 0.640625 690.601562 Z M 0.640625 0 " clip-rule="nonzero"/></clipPath><clipPath id="dcbce33c7e"><path d="M 592.394531 310.964844 L 586.105469 304.675781 C 580.207031 298.78125 565.777344 286.703125 558.933594 281.933594 L 502.203125 242.425781 C 477.898438 225.503906 411.507812 182.710938 386.058594 167.570312 L 303.492188 118.449219 C 287.078125 108.683594 241.789062 83.597656 224.800781 74.859375 L 204.792969 64.570312 C 196.09375 60.097656 173.007812 49.484375 163.945312 45.792969 L 143.496094 37.457031 C 134.613281 33.839844 111.105469 25.433594 101.945312 22.597656 L 34.722656 1.789062 C 30.386719 0.449219 23.488281 -0.101562 18.996094 0.542969 L 14.996094 1.113281 C 12.742188 1.4375 9.523438 2.667969 7.628906 3.929688 L 5.878906 5.09375 C 4.859375 5.777344 3.742188 7.039062 3.191406 8.136719 L 1.375 11.773438 C 0.277344 13.96875 -0.242188 17 0.0625 19.4375 L 0.953125 26.570312 C 1.519531 31.082031 3.777344 35.496094 7.105469 38.597656 L 328.488281 337.660156 C 330.019531 339.085938 331.617188 341.566406 332.277344 343.550781 L 332.851562 345.265625 C 333.199219 346.3125 332.910156 347.46875 332.113281 348.230469 L 260.246094 416.726562 C 230.324219 445.246094 142.90625 526.722656 112.355469 554.566406 L 11.347656 646.625 C 8.832031 648.917969 4.742188 653.914062 2.988281 656.832031 L 1.273438 659.691406 C 0.203125 661.476562 -0.285156 663.792969 -0.0273438 665.859375 L 1.242188 676.03125 C 1.621094 679.035156 3.136719 682.132812 5.277344 684.273438 L 6.992188 685.988281 C 7.988281 686.988281 9.683594 687.984375 11.039062 688.371094 L 17.875 690.324219 C 22.03125 691.511719 27.359375 691.398438 31.460938 690.03125 L 104.597656 665.648438 C 127.214844 658.113281 181.554688 636.210938 203.078125 625.964844 L 227.089844 614.53125 C 237.421875 609.609375 264.238281 595.554688 274.164062 589.855469 L 324.371094 561.03125 C 345.503906 548.898438 402.746094 514.011719 423.210938 500.785156 L 494.410156 454.78125 C 506.730469 446.820312 538.925781 424.386719 550.660156 415.582031 L 567.753906 402.765625 C 572.46875 399.230469 583.082031 390.023438 587.25 385.855469 L 591.820312 381.28125 C 594.207031 378.898438 597.78125 373.941406 599.289062 370.925781 L 602.414062 364.667969 C 604.046875 361.410156 606.015625 355.101562 606.53125 351.492188 L 607.511719 344.636719 C 607.71875 343.171875 607.566406 341.683594 607.058594 340.292969 L 601.722656 325.613281 C 600.019531 320.933594 595.914062 314.484375 592.394531 310.964844 Z M 592.394531 310.964844 " clip-rule="nonzero"/></clipPath><clipPath id="7349ba7799"><rect x="0" width="608" y="0" height="691"/></clipPath></defs><g clip-path="url(#56b8fb88ff)"><g clip-path="url(#e8a288b9ee)"><g transform="matrix(1, 0, 0, 1, 110, 39)"><g clip-path="url(#7349ba7799)"><g clip-path="url(#f549cff17d)"><g clip-path="url(#dcbce33c7e)"><path fill="#ffbd59" d="M 607.828125 -0.601562 L 607.828125 690.597656 L 0.664062 690.597656 L 0.664062 -0.601562 Z M 607.828125 -0.601562 " fill-opacity="1" fill-rule="nonzero"/></g></g></g></g></g></g></svg>