<svg xmlns="http://www.w3.org/2000/svg" xmlns:xlink="http://www.w3.org/1999/xlink" width="1024" zoomAndPan="magnify" viewBox="0 0 768 767.999994" height="1024" preserveAspectRatio="xMidYMid meet" version="1.0"><defs><clipPath id="ae4b0c4d00"><path d="M 150 0 L 618 0 C 700.84375 0 768 67.15625 768 150 L 768 618 C 768 700.84375 700.84375 768 618 768 L 150 768 C 67.15625 768 0 700.84375 0 618 L 0 150 C 0 67.15625 67.15625 0 150 0 Z M 150 0 " clip-rule="nonzero"/></clipPath><clipPath id="5f22630559"><path d="M 0 0 L 768 0 L 768 768 L 0 768 Z M 0 0 " clip-rule="nonzero"/></clipPath><clipPath id="23b258f42c"><path d="M 150 0 L 618 0 C 700.84375 0 768 67.15625 768 150 L 768 618 C 768 700.84375 700.84375 768 618 768 L 150 768 C 67.15625 768 0 700.84375 0 618 L 0 150 C 0 67.15625 67.15625 0 150 0 Z M 150 0 " clip-rule="nonzero"/></clipPath><clipPath id="988dc9d547"><rect x="0" width="768" y="0" height="768"/></clipPath><clipPath id="14006b1a28"><path d="M 167 109 L 650 109 L 650 659.941406 L 167 659.941406 Z M 167 109 " clip-rule="nonzero"/></clipPath><clipPath id="4561cd6ca7"><path d="M 637.929688 356.917969 L 632.925781 351.914062 C 628.234375 347.222656 616.75 337.613281 611.304688 333.820312 L 566.164062 302.382812 C 546.824219 288.914062 493.996094 254.867188 473.746094 242.816406 L 408.046875 203.730469 C 394.984375 195.960938 358.949219 176 345.433594 169.046875 L 329.511719 160.859375 C 322.585938 157.296875 304.21875 148.851562 297.007812 145.914062 L 280.734375 139.285156 C 273.667969 136.40625 254.964844 129.714844 247.671875 127.460938 L 194.183594 110.902344 C 190.734375 109.835938 185.246094 109.398438 181.667969 109.910156 L 178.484375 110.367188 C 176.691406 110.621094 174.128906 111.601562 172.625 112.605469 L 171.234375 113.53125 C 170.417969 114.074219 169.53125 115.078125 169.09375 115.953125 L 167.648438 118.847656 C 166.773438 120.59375 166.359375 123.003906 166.605469 124.945312 L 167.3125 130.621094 C 167.761719 134.210938 169.558594 137.726562 172.207031 140.191406 L 427.9375 378.160156 C 429.15625 379.292969 430.425781 381.265625 430.953125 382.847656 L 431.40625 384.210938 C 431.683594 385.046875 431.457031 385.964844 430.820312 386.570312 L 373.636719 441.074219 C 349.824219 463.769531 280.265625 528.597656 255.957031 550.753906 L 175.582031 624.007812 C 173.582031 625.832031 170.324219 629.808594 168.933594 632.132812 L 167.566406 634.40625 C 166.714844 635.828125 166.328125 637.667969 166.53125 639.3125 L 167.542969 647.40625 C 167.84375 649.796875 169.050781 652.261719 170.75 653.964844 L 172.117188 655.332031 C 172.910156 656.125 174.257812 656.917969 175.335938 657.226562 L 180.777344 658.78125 C 184.085938 659.726562 188.324219 659.632812 191.585938 658.546875 L 249.785156 639.144531 C 267.777344 633.148438 311.019531 615.722656 328.144531 607.566406 L 347.25 598.46875 C 355.472656 594.554688 376.8125 583.371094 384.710938 578.835938 L 424.660156 555.898438 C 441.476562 546.246094 487.023438 518.484375 503.308594 507.960938 L 559.964844 471.355469 C 569.765625 465.019531 595.382812 447.167969 604.722656 440.164062 L 618.324219 429.964844 C 622.074219 427.152344 630.519531 419.824219 633.835938 416.511719 L 637.476562 412.871094 C 639.371094 410.972656 642.214844 407.027344 643.414062 404.628906 L 645.902344 399.652344 C 647.203125 397.058594 648.769531 392.039062 649.179688 389.167969 L 649.894531 384.164062 C 650.101562 382.703125 649.949219 381.210938 649.441406 379.824219 L 645.351562 368.574219 C 644 364.851562 640.730469 359.71875 637.929688 356.917969 Z M 637.929688 356.917969 " clip-rule="nonzero"/></clipPath><clipPath id="7e572d28c0"><path d="M 0.0390625 0.199219 L 483 0.199219 L 483 550 L 0.0390625 550 Z M 0.0390625 0.199219 " clip-rule="nonzero"/></clipPath><clipPath id="12bbac248c"><path d="M 470.929688 247.917969 L 465.925781 242.914062 C 461.234375 238.222656 449.75 228.613281 444.304688 224.820312 L 399.164062 193.382812 C 379.824219 179.914062 326.996094 145.867188 306.746094 133.816406 L 241.046875 94.730469 C 227.984375 86.960938 191.949219 67 178.433594 60.046875 L 162.511719 51.859375 C 155.585938 48.296875 137.21875 39.851562 130.007812 36.914062 L 113.734375 30.285156 C 106.667969 27.40625 87.964844 20.714844 80.671875 18.460938 L 27.183594 1.902344 C 23.734375 0.835938 18.246094 0.398438 14.667969 0.910156 L 11.484375 1.367188 C 9.691406 1.621094 7.128906 2.601562 5.625 3.605469 L 4.234375 4.53125 C 3.417969 5.074219 2.53125 6.078125 2.09375 6.953125 L 0.648438 9.847656 C -0.226562 11.59375 -0.640625 14.003906 -0.394531 15.945312 L 0.3125 21.621094 C 0.761719 25.210938 2.558594 28.726562 5.207031 31.191406 L 260.9375 269.160156 C 262.15625 270.292969 263.425781 272.265625 263.953125 273.847656 L 264.40625 275.210938 C 264.683594 276.046875 264.457031 276.964844 263.820312 277.570312 L 206.636719 332.074219 C 182.824219 354.769531 113.265625 419.597656 88.957031 441.753906 L 8.582031 515.007812 C 6.582031 516.832031 3.324219 520.808594 1.933594 523.132812 L 0.566406 525.40625 C -0.285156 526.828125 -0.671875 528.667969 -0.46875 530.3125 L 0.542969 538.40625 C 0.84375 540.796875 2.050781 543.261719 3.75 544.964844 L 5.117188 546.332031 C 5.910156 547.125 7.257812 547.917969 8.335938 548.226562 L 13.777344 549.78125 C 17.085938 550.726562 21.324219 550.632812 24.585938 549.546875 L 82.785156 530.144531 C 100.777344 524.148438 144.019531 506.722656 161.144531 498.566406 L 180.25 489.46875 C 188.472656 485.554688 209.8125 474.371094 217.710938 469.835938 L 257.660156 446.898438 C 274.476562 437.246094 320.023438 409.484375 336.308594 398.960938 L 392.964844 362.355469 C 402.765625 356.019531 428.382812 338.167969 437.722656 331.164062 L 451.324219 320.964844 C 455.074219 318.152344 463.519531 310.824219 466.835938 307.511719 L 470.476562 303.871094 C 472.371094 301.972656 475.214844 298.027344 476.414062 295.628906 L 478.902344 290.652344 C 480.203125 288.058594 481.769531 283.039062 482.179688 280.167969 L 482.894531 275.164062 C 483.101562 273.703125 482.949219 272.210938 482.441406 270.824219 L 478.351562 259.574219 C 477 255.851562 473.730469 250.71875 470.929688 247.917969 Z M 470.929688 247.917969 " clip-rule="nonzero"/></clipPath><clipPath id="d3a76b6503"><rect x="0" width="483" y="0" height="551"/></clipPath></defs><g clip-path="url(#ae4b0c4d00)"><g transform="matrix(1, 0, 0, 1, 0, -0.000000000000057351)"><g clip-path="url(#988dc9d547)"><g clip-path="url(#5f22630559)"><g clip-path="url(#23b258f42c)"><rect x="-168.96" width="1105.92" fill="#8c52ff" height="1105.919991" y="-168.959999" fill-opacity="1"/></g></g></g></g></g><g clip-path="url(#14006b1a28)"><g clip-path="url(#4561cd6ca7)"><g transform="matrix(1, 0, 0, 1, 167, 109)"><g clip-path="url(#d3a76b6503)"><g clip-path="url(#7e572d28c0)"><g clip-path="url(#12bbac248c)"><path fill="#ffbd59" d="M 483.210938 0 L 483.210938 550 L 0.0820312 550 L 0.0820312 0 Z M 483.210938 0 " fill-opacity="1" fill-rule="nonzero"/></g></g></g></g></g></g></svg>