<?xml version="1.0" encoding="UTF-8"?>
<!DOCTYPE svg PUBLIC "-//W3C//DTD SVG 1.1//EN" "http://www.w3.org/Graphics/SVG/1.1/DTD/svg11.dtd">
<svg xmlns="http://www.w3.org/2000/svg" version="1.1" width="1024px" height="1024px" style="shape-rendering:geometricPrecision; text-rendering:geometricPrecision; image-rendering:optimizeQuality; fill-rule:evenodd; clip-rule:evenodd" xmlns:xlink="http://www.w3.org/1999/xlink">
<g><path style="opacity:1" fill="#8c52fe" d="M -0.5,-0.5 C 340.833,-0.5 682.167,-0.5 1023.5,-0.5C 1023.5,340.833 1023.5,682.167 1023.5,1023.5C 682.167,1023.5 340.833,1023.5 -0.5,1023.5C -0.5,682.167 -0.5,340.833 -0.5,-0.5 Z"/></g>
<g><path style="opacity:1" fill="#fefeff" d="M 190.5,154.5 C 208.167,154.5 225.833,154.5 243.5,154.5C 243.5,235.833 243.5,317.167 243.5,398.5C 282.167,398.5 320.833,398.5 359.5,398.5C 359.5,413.5 359.5,428.5 359.5,443.5C 303.167,443.5 246.833,443.5 190.5,443.5C 190.5,347.167 190.5,250.833 190.5,154.5 Z"/></g>
<g><path style="opacity:1" fill="#fefeff" d="M 548.5,346.5 C 504.833,346.5 461.167,346.5 417.5,346.5C 417.216,348.415 417.549,350.081 418.5,351.5C 423.545,396.197 448.212,414.364 492.5,406C 504.126,402.353 515.126,397.353 525.5,391C 530.111,389.993 534.445,390.66 538.5,393C 543.899,399.395 548.899,406.061 553.5,413C 543.322,425.105 530.656,433.772 515.5,439C 487.23,448.435 458.897,448.768 430.5,440C 401.457,427.955 382.624,406.788 374,376.5C 365.835,348.126 366.835,320.126 377,292.5C 391.451,260.057 416.285,241.223 451.5,236C 476.814,232.247 500.147,237.247 521.5,251C 548.051,273.631 559.551,302.465 556,337.5C 555,339.833 554,342.167 553,344.5C 551.67,345.582 550.17,346.249 548.5,346.5 Z"/></g>
<g><path style="opacity:1" fill="#fefdff" d="M 665.5,235.5 C 699.528,231.161 728.861,240.661 753.5,264C 748.613,269.886 744.113,276.053 740,282.5C 736.212,287.153 731.378,288.653 725.5,287C 716.049,280.442 705.715,275.775 694.5,273C 659.558,270.6 639.391,286.767 634,321.5C 633.134,335.537 633.468,349.537 635,363.5C 641.618,396.787 661.784,411.621 695.5,408C 701.132,406.789 706.466,404.789 711.5,402C 716.833,398.333 722.167,394.667 727.5,391C 733.378,389.347 738.212,390.847 742,395.5C 746.5,401.333 751,407.167 755.5,413C 733.792,436.093 706.959,447.26 675,446.5C 633.667,444.823 605.334,424.823 590,386.5C 580.457,356.948 580.123,327.282 589,297.5C 602.517,261.796 628.017,241.129 665.5,235.5 Z"/></g>
<g><path style="opacity:1" fill="#8c53ff" d="M 511.5,316.5 C 480.482,317.159 449.815,316.492 419.5,314.5C 426.943,278.577 448.61,264.743 484.5,273C 503.263,281.346 512.263,295.846 511.5,316.5 Z"/></g>
<g><path style="opacity:1" fill="#aa7eff" d="M 419.5,314.5 C 449.815,316.492 480.482,317.159 511.5,316.5C 480.671,317.498 449.671,317.831 418.5,317.5C 418.263,316.209 418.596,315.209 419.5,314.5 Z"/></g>
<g><path style="opacity:1" fill="#c6a9ff" d="M 548.5,346.5 C 505.337,347.499 462.003,347.832 418.5,347.5C 418.5,348.833 418.5,350.167 418.5,351.5C 417.549,350.081 417.216,348.415 417.5,346.5C 461.167,346.5 504.833,346.5 548.5,346.5 Z"/></g>
<g><path style="opacity:1" fill="#fefeff" d="M 481.5,598.5 C 499.5,598.5 517.5,598.5 535.5,598.5C 535.5,694.833 535.5,791.167 535.5,887.5C 517.5,887.5 499.5,887.5 481.5,887.5C 481.5,791.167 481.5,694.833 481.5,598.5 Z"/></g>
<g><path style="opacity:1" fill="#fefdff" d="M 600.5,598.5 C 613.561,598.078 626.561,598.578 639.5,600C 642.333,602.833 645.167,605.667 648,608.5C 697.285,672.12 746.952,735.454 797,798.5C 796.535,731.851 796.369,665.184 796.5,598.5C 812.5,598.5 828.5,598.5 844.5,598.5C 844.5,694.833 844.5,791.167 844.5,887.5C 832.829,887.667 821.162,887.5 809.5,887C 803.826,884.337 798.993,880.503 795,875.5C 746.382,812.547 697.382,749.88 648,687.5C 647.5,754.166 647.333,820.833 647.5,887.5C 631.833,887.5 616.167,887.5 600.5,887.5C 600.5,791.167 600.5,694.833 600.5,598.5 Z"/></g>
<g><path style="opacity:1" fill="#febc59" d="M 179.5,605.5 C 202.861,610.342 225.528,617.509 247.5,627C 300.205,654.094 350.538,684.76 398.5,719C 403.301,722.799 407.801,726.966 412,731.5C 416.913,740.039 416.58,748.372 411,756.5C 397.016,768.82 382.183,779.987 366.5,790C 336.287,809.859 305.287,828.526 273.5,846C 245.785,859.684 217.118,871.017 187.5,880C 179.534,882.516 175.201,879.683 174.5,871.5C 174.295,868.771 175.128,866.438 177,864.5C 221.438,825.397 264.604,784.897 306.5,743C 301.907,737.403 296.907,732.07 291.5,727C 253,691.167 214.5,655.333 176,619.5C 173.133,613.63 174.3,608.963 179.5,605.5 Z"/></g>
</svg>
