<svg xmlns="http://www.w3.org/2000/svg" xmlns:xlink="http://www.w3.org/1999/xlink" width="1024" zoomAndPan="magnify" viewBox="0 0 768 767.999994" height="1024" preserveAspectRatio="xMidYMid meet" version="1.0"><defs><g/><clipPath id="6f59d7c3f1"><path d="M 0 0 L 768 0 L 768 768 L 0 768 Z M 0 0 " clip-rule="nonzero"/></clipPath><clipPath id="1e06bc0d73"><rect x="0" width="768" y="0" height="768"/></clipPath><clipPath id="f469210890"><path d="M 0.558594 231 L 1 231 L 1 232 L 0.558594 232 Z M 0.558594 231 " clip-rule="nonzero"/></clipPath><clipPath id="a7fb5949f6"><path d="M 0.558594 491 L 1 491 L 1 492 L 0.558594 492 Z M 0.558594 491 " clip-rule="nonzero"/></clipPath><clipPath id="4b06dd22aa"><rect x="0" width="480" y="0" height="542"/></clipPath><clipPath id="63b9ccc035"><path d="M 179 423.214844 L 343.441406 423.214844 L 343.441406 610.640625 L 179 610.640625 Z M 179 423.214844 " clip-rule="nonzero"/></clipPath><clipPath id="c833e6266f"><path d="M 339.265625 507.554688 L 337.5625 505.851562 C 335.964844 504.253906 332.058594 500.984375 330.207031 499.695312 L 314.851562 489 C 308.269531 484.417969 290.300781 472.835938 283.410156 468.738281 L 261.058594 455.441406 C 256.617188 452.796875 244.355469 446.007812 239.757812 443.640625 L 234.34375 440.855469 C 231.988281 439.644531 225.738281 436.773438 223.285156 435.773438 L 217.75 433.515625 C 215.34375 432.539062 208.980469 430.261719 206.503906 429.492188 L 188.304688 423.863281 C 187.132812 423.5 185.265625 423.351562 184.046875 423.523438 L 182.964844 423.679688 C 182.355469 423.765625 181.484375 424.097656 180.972656 424.441406 L 180.496094 424.753906 C 180.222656 424.941406 179.917969 425.28125 179.769531 425.582031 L 179.277344 426.5625 C 178.980469 427.160156 178.839844 427.980469 178.921875 428.636719 L 179.164062 430.570312 C 179.316406 431.789062 179.929688 432.984375 180.828125 433.824219 L 267.824219 514.78125 C 268.242188 515.164062 268.671875 515.835938 268.851562 516.375 L 269.007812 516.839844 C 269.101562 517.121094 269.023438 517.433594 268.808594 517.640625 L 249.351562 536.183594 C 241.253906 543.902344 217.589844 565.957031 209.320312 573.496094 L 181.976562 598.414062 C 181.296875 599.035156 180.1875 600.386719 179.714844 601.179688 L 179.25 601.953125 C 178.960938 602.4375 178.828125 603.0625 178.898438 603.621094 L 179.242188 606.375 C 179.34375 607.1875 179.753906 608.027344 180.335938 608.605469 L 180.796875 609.070312 C 181.070312 609.339844 181.527344 609.609375 181.894531 609.714844 L 183.746094 610.246094 C 184.871094 610.566406 186.3125 610.535156 187.421875 610.164062 L 207.21875 603.566406 C 213.34375 601.523438 228.050781 595.597656 233.878906 592.820312 L 240.378906 589.726562 C 243.175781 588.394531 250.433594 584.589844 253.121094 583.046875 L 266.710938 575.246094 C 272.433594 571.960938 287.925781 562.515625 293.46875 558.9375 L 312.742188 546.484375 C 316.074219 544.328125 324.789062 538.257812 327.96875 535.875 L 332.59375 532.402344 C 333.871094 531.445312 336.742188 528.953125 337.871094 527.828125 L 339.109375 526.589844 C 339.753906 525.941406 340.722656 524.601562 341.128906 523.785156 L 341.976562 522.089844 C 342.417969 521.207031 342.953125 519.5 343.089844 518.523438 L 343.265625 517.292969 C 343.382812 516.488281 343.296875 515.664062 343.019531 514.898438 L 341.789062 511.519531 C 341.328125 510.253906 340.21875 508.507812 339.265625 507.554688 Z M 339.265625 507.554688 " clip-rule="nonzero"/></clipPath><clipPath id="7160715a69"><path d="M 0.0390625 0.214844 L 164.441406 0.214844 L 164.441406 187.320312 L 0.0390625 187.320312 Z M 0.0390625 0.214844 " clip-rule="nonzero"/></clipPath><clipPath id="6131262ffb"><path d="M 160.265625 84.554688 L 158.5625 82.851562 C 156.964844 81.253906 153.058594 77.984375 151.207031 76.695312 L 135.851562 66 C 129.269531 61.417969 111.300781 49.835938 104.410156 45.738281 L 82.058594 32.441406 C 77.617188 29.796875 65.355469 23.007812 60.757812 20.640625 L 55.34375 17.855469 C 52.988281 16.644531 46.738281 13.773438 44.285156 12.773438 L 38.75 10.515625 C 36.34375 9.539062 29.980469 7.261719 27.503906 6.492188 L 9.304688 0.863281 C 8.132812 0.5 6.265625 0.351562 5.046875 0.523438 L 3.964844 0.679688 C 3.355469 0.765625 2.484375 1.097656 1.972656 1.441406 L 1.496094 1.753906 C 1.222656 1.941406 0.917969 2.28125 0.769531 2.582031 L 0.277344 3.5625 C -0.0195312 4.160156 -0.160156 4.980469 -0.078125 5.636719 L 0.164062 7.570312 C 0.316406 8.789062 0.929688 9.984375 1.828125 10.824219 L 88.824219 91.78125 C 89.242188 92.164062 89.671875 92.835938 89.851562 93.375 L 90.007812 93.839844 C 90.101562 94.121094 90.023438 94.433594 89.808594 94.640625 L 70.351562 113.183594 C 62.253906 120.902344 38.589844 142.957031 30.320312 150.496094 L 2.976562 175.414062 C 2.296875 176.035156 1.1875 177.386719 0.714844 178.179688 L 0.25 178.953125 C -0.0390625 179.4375 -0.171875 180.0625 -0.101562 180.621094 L 0.242188 183.375 C 0.34375 184.1875 0.753906 185.027344 1.335938 185.605469 L 1.796875 186.070312 C 2.070312 186.339844 2.527344 186.609375 2.894531 186.714844 L 4.746094 187.246094 C 5.871094 187.566406 7.3125 187.535156 8.421875 187.164062 L 28.21875 180.566406 C 34.34375 178.523438 49.050781 172.597656 54.878906 169.820312 L 61.378906 166.726562 C 64.175781 165.394531 71.433594 161.589844 74.121094 160.046875 L 87.710938 152.246094 C 93.433594 148.960938 108.925781 139.515625 114.46875 135.9375 L 133.742188 123.484375 C 137.074219 121.328125 145.789062 115.257812 148.96875 112.875 L 153.59375 109.402344 C 154.871094 108.445312 157.742188 105.953125 158.871094 104.828125 L 160.109375 103.589844 C 160.753906 102.941406 161.722656 101.601562 162.128906 100.785156 L 162.976562 99.089844 C 163.417969 98.207031 163.953125 96.5 164.089844 95.523438 L 164.265625 94.292969 C 164.382812 93.488281 164.296875 92.664062 164.019531 91.898438 L 162.789062 88.519531 C 162.328125 87.253906 161.21875 85.507812 160.265625 84.554688 Z M 160.265625 84.554688 " clip-rule="nonzero"/></clipPath><clipPath id="0ed2bdfc97"><rect x="0" width="165" y="0" height="188"/></clipPath></defs><g transform="matrix(1, 0, 0, 1, 0, -0.000000000000057351)"><g clip-path="url(#1e06bc0d73)"><g clip-path="url(#6f59d7c3f1)"><rect x="-168.96" width="1105.92" fill="#8c52ff" height="1105.919991" y="-168.959999" fill-opacity="1"/></g></g></g><g transform="matrix(1, 0, 0, 1, 136, 113)"><g clip-path="url(#4b06dd22aa)"><g clip-path="url(#f469210890)"><g fill="#ffffff" fill-opacity="1"><g transform="translate(0.731442, 231.152124)"><g/></g></g></g><g fill="#ffffff" fill-opacity="1"><g transform="translate(57.692303, 231.152124)"><g><path d="M 118.140625 -26.015625 L 118.140625 0 L 18.875 0 L 18.875 -169.46875 L 50.390625 -169.46875 L 50.390625 -26.015625 Z M 118.140625 -26.015625 "/></g></g></g><g fill="#ffffff" fill-opacity="1"><g transform="translate(173.368586, 231.152124)"><g><path d="M 91.765625 -73.953125 C 91.765625 -77.703125 91.238281 -81.238281 90.1875 -84.5625 C 89.132812 -87.882812 87.550781 -90.796875 85.4375 -93.296875 C 83.332031 -95.796875 80.65625 -97.765625 77.40625 -99.203125 C 74.164062 -100.648438 70.398438 -101.375 66.109375 -101.375 C 57.742188 -101.375 51.15625 -98.988281 46.34375 -94.21875 C 41.539062 -89.457031 38.476562 -82.703125 37.15625 -73.953125 Z M 36.5625 -56.484375 C 37.03125 -50.316406 38.125 -44.984375 39.84375 -40.484375 C 41.5625 -35.992188 43.828125 -32.285156 46.640625 -29.359375 C 49.453125 -26.429688 52.789062 -24.242188 56.65625 -22.796875 C 60.53125 -21.347656 64.8125 -20.625 69.5 -20.625 C 74.1875 -20.625 78.226562 -21.171875 81.625 -22.265625 C 85.03125 -23.359375 88 -24.566406 90.53125 -25.890625 C 93.070312 -27.222656 95.300781 -28.4375 97.21875 -29.53125 C 99.132812 -30.625 100.988281 -31.171875 102.78125 -31.171875 C 105.207031 -31.171875 107.003906 -30.273438 108.171875 -28.484375 L 116.5 -17.9375 C 113.289062 -14.1875 109.691406 -11.039062 105.703125 -8.5 C 101.722656 -5.957031 97.566406 -3.925781 93.234375 -2.40625 C 88.898438 -0.882812 84.484375 0.1875 79.984375 0.8125 C 75.492188 1.445312 71.140625 1.765625 66.921875 1.765625 C 58.554688 1.765625 50.78125 0.378906 43.59375 -2.390625 C 36.40625 -5.171875 30.15625 -9.273438 24.84375 -14.703125 C 19.53125 -20.140625 15.347656 -26.859375 12.296875 -34.859375 C 9.253906 -42.867188 7.734375 -52.148438 7.734375 -62.703125 C 7.734375 -70.910156 9.0625 -78.625 11.71875 -85.84375 C 14.375 -93.070312 18.179688 -99.363281 23.140625 -104.71875 C 28.109375 -110.070312 34.164062 -114.3125 41.3125 -117.4375 C 48.457031 -120.5625 56.523438 -122.125 65.515625 -122.125 C 73.097656 -122.125 80.09375 -120.910156 86.5 -118.484375 C 92.90625 -116.066406 98.410156 -112.53125 103.015625 -107.875 C 107.628906 -103.226562 111.242188 -97.523438 113.859375 -90.765625 C 116.484375 -84.015625 117.796875 -76.300781 117.796875 -67.625 C 117.796875 -63.25 117.320312 -60.296875 116.375 -58.765625 C 115.4375 -57.242188 113.640625 -56.484375 110.984375 -56.484375 Z M 36.5625 -56.484375 "/></g></g></g><g fill="#ffffff" fill-opacity="1"><g transform="translate(298.538082, 231.152124)"><g><path d="M 100.4375 -94.8125 C 99.582031 -93.71875 98.742188 -92.859375 97.921875 -92.234375 C 97.097656 -91.609375 95.90625 -91.296875 94.34375 -91.296875 C 92.863281 -91.296875 91.421875 -91.742188 90.015625 -92.640625 C 88.609375 -93.546875 86.925781 -94.5625 84.96875 -95.6875 C 83.019531 -96.820312 80.695312 -97.835938 78 -98.734375 C 75.300781 -99.640625 71.960938 -100.09375 67.984375 -100.09375 C 62.898438 -100.09375 58.441406 -99.171875 54.609375 -97.328125 C 50.785156 -95.492188 47.601562 -92.859375 45.0625 -89.421875 C 42.519531 -85.984375 40.625 -81.820312 39.375 -76.9375 C 38.125 -72.0625 37.5 -66.535156 37.5 -60.359375 C 37.5 -53.953125 38.179688 -48.25 39.546875 -43.25 C 40.921875 -38.25 42.894531 -34.046875 45.46875 -30.640625 C 48.050781 -27.242188 51.175781 -24.664062 54.84375 -22.90625 C 58.519531 -21.15625 62.664062 -20.28125 67.28125 -20.28125 C 71.882812 -20.28125 75.613281 -20.84375 78.46875 -21.96875 C 81.320312 -23.101562 83.722656 -24.351562 85.671875 -25.71875 C 87.628906 -27.09375 89.328125 -28.34375 90.765625 -29.46875 C 92.210938 -30.601562 93.835938 -31.171875 95.640625 -31.171875 C 97.984375 -31.171875 99.738281 -30.273438 100.90625 -28.484375 L 109.234375 -17.9375 C 106.023438 -14.1875 102.546875 -11.039062 98.796875 -8.5 C 95.046875 -5.957031 91.160156 -3.925781 87.140625 -2.40625 C 83.117188 -0.882812 78.976562 0.1875 74.71875 0.8125 C 70.457031 1.445312 66.21875 1.765625 62 1.765625 C 54.570312 1.765625 47.578125 0.378906 41.015625 -2.390625 C 34.453125 -5.171875 28.707031 -9.21875 23.78125 -14.53125 C 18.863281 -19.84375 14.976562 -26.347656 12.125 -34.046875 C 9.28125 -41.742188 7.859375 -50.515625 7.859375 -60.359375 C 7.859375 -69.191406 9.125 -77.375 11.65625 -84.90625 C 14.195312 -92.445312 17.925781 -98.972656 22.84375 -104.484375 C 27.769531 -109.992188 33.863281 -114.3125 41.125 -117.4375 C 48.394531 -120.5625 56.757812 -122.125 66.21875 -122.125 C 75.207031 -122.125 83.078125 -120.675781 89.828125 -117.78125 C 96.585938 -114.894531 102.664062 -110.753906 108.0625 -105.359375 Z M 100.4375 -94.8125 "/></g></g></g><g clip-path="url(#a7fb5949f6)"><g fill="#ffffff" fill-opacity="1"><g transform="translate(0.731442, 491.335347)"><g/></g></g></g><g fill="#ffffff" fill-opacity="1"><g transform="translate(57.690586, 491.335347)"><g/></g></g><g fill="#ffffff" fill-opacity="1"><g transform="translate(114.64973, 491.335347)"><g/></g></g><g fill="#ffffff" fill-opacity="1"><g transform="translate(171.608874, 491.335347)"><g/></g></g><g fill="#ffffff" fill-opacity="1"><g transform="translate(228.574887, 491.335347)"><g><path d="M 50.515625 0 L 18.875 0 L 18.875 -169.46875 L 50.515625 -169.46875 Z M 50.515625 0 "/></g></g></g><g fill="#ffffff" fill-opacity="1"><g transform="translate(298.074435, 491.335347)"><g><path d="M 161.734375 -169.46875 L 161.734375 0 L 145.5625 0 C 143.0625 0 140.972656 -0.410156 139.296875 -1.234375 C 137.617188 -2.054688 136 -3.441406 134.4375 -5.390625 L 45.9375 -118.375 C 46.40625 -113.21875 46.640625 -108.453125 46.640625 -104.078125 L 46.640625 0 L 18.875 0 L 18.875 -169.46875 L 35.390625 -169.46875 C 36.722656 -169.46875 37.875 -169.410156 38.84375 -169.296875 C 39.820312 -169.179688 40.679688 -168.945312 41.421875 -168.59375 C 42.171875 -168.238281 42.894531 -167.726562 43.59375 -167.0625 C 44.300781 -166.40625 45.082031 -165.53125 45.9375 -164.4375 L 134.78125 -50.984375 C 134.550781 -53.710938 134.359375 -56.40625 134.203125 -59.0625 C 134.046875 -61.726562 133.96875 -64.191406 133.96875 -66.453125 L 133.96875 -169.46875 Z M 161.734375 -169.46875 "/></g></g></g></g></g><g clip-path="url(#63b9ccc035)"><g clip-path="url(#c833e6266f)"><g transform="matrix(1, 0, 0, 1, 179, 423)"><g clip-path="url(#0ed2bdfc97)"><g clip-path="url(#7160715a69)"><g clip-path="url(#6131262ffb)"><path fill="#ffbd59" d="M 164.441406 0.214844 L 164.441406 187.320312 L 0.0859375 187.320312 L 0.0859375 0.214844 Z M 164.441406 0.214844 " fill-opacity="1" fill-rule="nonzero"/></g></g></g></g></g></g></svg>