<svg xmlns="http://www.w3.org/2000/svg" xmlns:xlink="http://www.w3.org/1999/xlink" width="1000" zoomAndPan="magnify" viewBox="0 0 750 374.999991" height="500" preserveAspectRatio="xMidYMid meet" version="1.0"><defs><g/><clipPath id="e6fa65a780"><rect x="0" width="525" y="0" height="225"/></clipPath><clipPath id="606f2f9876"><path d="M 559.65625 111.753906 L 692.996094 111.753906 L 692.996094 263.511719 L 559.65625 263.511719 Z M 559.65625 111.753906 " clip-rule="nonzero"/></clipPath><clipPath id="ef862f9b9c"><path d="M 689.609375 180.046875 L 688.234375 178.667969 C 686.941406 177.375 683.777344 174.726562 682.277344 173.683594 L 669.84375 165.023438 C 664.515625 161.3125 649.964844 151.933594 644.386719 148.617188 L 626.289062 137.847656 C 622.691406 135.707031 612.765625 130.210938 609.042969 128.296875 L 604.65625 126.039062 C 602.75 125.058594 597.6875 122.734375 595.703125 121.921875 L 591.21875 120.097656 C 589.273438 119.304688 584.121094 117.460938 582.113281 116.839844 L 567.378906 112.277344 C 566.429688 111.984375 564.917969 111.863281 563.933594 112.003906 L 563.054688 112.132812 C 562.5625 112.203125 561.855469 112.472656 561.441406 112.746094 L 561.058594 113.003906 C 560.832031 113.152344 560.589844 113.429688 560.46875 113.671875 L 560.070312 114.46875 C 559.828125 114.949219 559.714844 115.613281 559.78125 116.148438 L 559.976562 117.710938 C 560.101562 118.699219 560.597656 119.667969 561.328125 120.347656 L 631.769531 185.894531 C 632.105469 186.207031 632.453125 186.75 632.597656 187.1875 L 632.722656 187.5625 C 632.800781 187.792969 632.738281 188.046875 632.5625 188.210938 L 616.808594 203.226562 C 610.253906 209.476562 591.09375 227.335938 584.394531 233.4375 L 562.257812 253.617188 C 561.703125 254.117188 560.808594 255.214844 560.425781 255.851562 L 560.046875 256.480469 C 559.8125 256.871094 559.707031 257.378906 559.761719 257.832031 L 560.042969 260.0625 C 560.125 260.71875 560.457031 261.398438 560.925781 261.867188 L 561.300781 262.242188 C 561.519531 262.460938 561.890625 262.679688 562.1875 262.765625 L 563.6875 263.195312 C 564.597656 263.453125 565.765625 263.429688 566.664062 263.128906 L 582.695312 257.785156 C 587.652344 256.132812 599.5625 251.332031 604.28125 249.085938 L 609.542969 246.582031 C 611.808594 245.503906 617.683594 242.421875 619.859375 241.171875 L 630.867188 234.855469 C 635.496094 232.195312 648.042969 224.546875 652.527344 221.648438 L 668.136719 211.566406 C 670.835938 209.820312 677.890625 204.90625 680.464844 202.976562 L 684.210938 200.164062 C 685.242188 199.390625 687.570312 197.371094 688.484375 196.460938 L 689.484375 195.457031 C 690.007812 194.933594 690.792969 193.847656 691.121094 193.1875 L 691.808594 191.816406 C 692.164062 191.101562 692.597656 189.71875 692.710938 188.929688 L 692.890625 187.648438 C 692.960938 187.179688 692.910156 186.703125 692.75 186.261719 L 691.65625 183.253906 C 691.28125 182.230469 690.382812 180.816406 689.609375 180.046875 Z M 689.609375 180.046875 " clip-rule="nonzero"/></clipPath><clipPath id="cb516974ab"><path d="M 0.679688 0.839844 L 133.996094 0.839844 L 133.996094 152.28125 L 0.679688 152.28125 Z M 0.679688 0.839844 " clip-rule="nonzero"/></clipPath><clipPath id="d804a38c65"><path d="M 130.609375 69.046875 L 129.234375 67.667969 C 127.941406 66.375 124.777344 63.726562 123.277344 62.683594 L 110.84375 54.023438 C 105.515625 50.3125 90.964844 40.933594 85.386719 37.617188 L 67.289062 26.847656 C 63.691406 24.707031 53.765625 19.210938 50.042969 17.296875 L 45.65625 15.039062 C 43.75 14.058594 38.6875 11.734375 36.703125 10.921875 L 32.21875 9.097656 C 30.273438 8.304688 25.121094 6.460938 23.113281 5.839844 L 8.378906 1.277344 C 7.429688 0.984375 5.917969 0.863281 4.933594 1.003906 L 4.054688 1.132812 C 3.5625 1.203125 2.855469 1.472656 2.441406 1.746094 L 2.058594 2.003906 C 1.832031 2.152344 1.589844 2.429688 1.46875 2.671875 L 1.070312 3.46875 C 0.828125 3.949219 0.714844 4.613281 0.78125 5.148438 L 0.976562 6.710938 C 1.101562 7.699219 1.597656 8.667969 2.328125 9.347656 L 72.769531 74.894531 C 73.105469 75.207031 73.453125 75.75 73.597656 76.1875 L 73.722656 76.5625 C 73.800781 76.792969 73.738281 77.046875 73.5625 77.210938 L 57.808594 92.226562 C 51.253906 98.476562 32.09375 116.335938 25.394531 122.4375 L 3.257812 142.617188 C 2.703125 143.117188 1.808594 144.214844 1.425781 144.851562 L 1.046875 145.480469 C 0.8125 145.871094 0.707031 146.378906 0.761719 146.832031 L 1.042969 149.0625 C 1.125 149.71875 1.457031 150.398438 1.925781 150.867188 L 2.300781 151.242188 C 2.519531 151.460938 2.890625 151.679688 3.1875 151.765625 L 4.6875 152.195312 C 5.597656 152.453125 6.765625 152.429688 7.664062 152.128906 L 23.695312 146.785156 C 28.652344 145.132812 40.5625 140.332031 45.28125 138.085938 L 50.542969 135.582031 C 52.808594 134.503906 58.683594 131.421875 60.859375 130.171875 L 71.867188 123.855469 C 76.496094 121.195312 89.042969 113.546875 93.527344 110.648438 L 109.136719 100.566406 C 111.835938 98.820312 118.890625 93.90625 121.464844 91.976562 L 125.210938 89.164062 C 126.242188 88.390625 128.570312 86.371094 129.484375 85.460938 L 130.484375 84.457031 C 131.007812 83.933594 131.792969 82.847656 132.121094 82.1875 L 132.808594 80.816406 C 133.164062 80.101562 133.597656 78.71875 133.710938 77.929688 L 133.890625 76.648438 C 133.960938 76.179688 133.910156 75.703125 133.75 75.261719 L 132.65625 72.253906 C 132.28125 71.230469 131.382812 69.816406 130.609375 69.046875 Z M 130.609375 69.046875 " clip-rule="nonzero"/></clipPath><clipPath id="bb40842484"><rect x="0" width="134" y="0" height="153"/></clipPath></defs><g transform="matrix(1, 0, 0, 1, 0, 75)"><g clip-path="url(#e6fa65a780)"><g fill="#ffffff" fill-opacity="1"><g transform="translate(45.259274, 184.204747)"><g><path d="M 93.875 -20.671875 L 93.875 0 L 15 0 L 15 -134.65625 L 40.046875 -134.65625 L 40.046875 -20.671875 Z M 93.875 -20.671875 "/></g></g></g><g fill="#ffffff" fill-opacity="1"><g transform="translate(137.171922, 184.204747)"><g><path d="M 72.921875 -58.765625 C 72.921875 -61.742188 72.5 -64.550781 71.65625 -67.1875 C 70.820312 -69.820312 69.566406 -72.132812 67.890625 -74.125 C 66.210938 -76.113281 64.082031 -77.679688 61.5 -78.828125 C 58.925781 -79.972656 55.929688 -80.546875 52.515625 -80.546875 C 45.878906 -80.546875 40.648438 -78.648438 36.828125 -74.859375 C 33.015625 -71.078125 30.578125 -65.710938 29.515625 -58.765625 Z M 29.0625 -44.890625 C 29.425781 -39.984375 30.289062 -35.742188 31.65625 -32.171875 C 33.03125 -28.597656 34.832031 -25.644531 37.0625 -23.3125 C 39.300781 -20.988281 41.957031 -19.253906 45.03125 -18.109375 C 48.101562 -16.960938 51.5 -16.390625 55.21875 -16.390625 C 58.945312 -16.390625 62.160156 -16.820312 64.859375 -17.6875 C 67.554688 -18.5625 69.914062 -19.523438 71.9375 -20.578125 C 73.957031 -21.628906 75.726562 -22.585938 77.25 -23.453125 C 78.769531 -24.328125 80.242188 -24.765625 81.671875 -24.765625 C 83.597656 -24.765625 85.023438 -24.050781 85.953125 -22.625 L 92.5625 -14.25 C 90.019531 -11.269531 87.164062 -8.769531 84 -6.75 C 80.832031 -4.726562 77.523438 -3.113281 74.078125 -1.90625 C 70.628906 -0.695312 67.117188 0.148438 63.546875 0.640625 C 59.984375 1.140625 56.523438 1.390625 53.171875 1.390625 C 46.523438 1.390625 40.347656 0.289062 34.640625 -1.90625 C 28.929688 -4.113281 23.960938 -7.375 19.734375 -11.6875 C 15.515625 -16 12.191406 -21.335938 9.765625 -27.703125 C 7.347656 -34.066406 6.140625 -41.441406 6.140625 -49.828125 C 6.140625 -56.335938 7.195312 -62.460938 9.3125 -68.203125 C 11.425781 -73.953125 14.453125 -78.953125 18.390625 -83.203125 C 22.335938 -87.460938 27.148438 -90.832031 32.828125 -93.3125 C 38.503906 -95.789062 44.914062 -97.03125 52.0625 -97.03125 C 58.082031 -97.03125 63.632812 -96.066406 68.71875 -94.140625 C 73.8125 -92.222656 78.1875 -89.414062 81.84375 -85.71875 C 85.507812 -82.03125 88.382812 -77.5 90.46875 -72.125 C 92.550781 -66.75 93.59375 -60.617188 93.59375 -53.734375 C 93.59375 -50.253906 93.21875 -47.910156 92.46875 -46.703125 C 91.726562 -45.492188 90.300781 -44.890625 88.1875 -44.890625 Z M 29.0625 -44.890625 "/></g></g></g><g fill="#ffffff" fill-opacity="1"><g transform="translate(236.62757, 184.204747)"><g><path d="M 79.8125 -75.34375 C 79.125 -74.46875 78.453125 -73.78125 77.796875 -73.28125 C 77.148438 -72.789062 76.207031 -72.546875 74.96875 -72.546875 C 73.789062 -72.546875 72.640625 -72.898438 71.515625 -73.609375 C 70.398438 -74.328125 69.066406 -75.132812 67.515625 -76.03125 C 65.960938 -76.9375 64.113281 -77.742188 61.96875 -78.453125 C 59.832031 -79.171875 57.179688 -79.53125 54.015625 -79.53125 C 49.972656 -79.53125 46.429688 -78.800781 43.390625 -77.34375 C 40.347656 -75.882812 37.816406 -73.785156 35.796875 -71.046875 C 33.785156 -68.316406 32.28125 -65.007812 31.28125 -61.125 C 30.289062 -57.25 29.796875 -52.859375 29.796875 -47.953125 C 29.796875 -42.867188 30.335938 -38.335938 31.421875 -34.359375 C 32.515625 -30.390625 34.082031 -27.050781 36.125 -24.34375 C 38.175781 -21.644531 40.660156 -19.597656 43.578125 -18.203125 C 46.492188 -16.804688 49.785156 -16.109375 53.453125 -16.109375 C 57.117188 -16.109375 60.082031 -16.554688 62.34375 -17.453125 C 64.613281 -18.359375 66.523438 -19.351562 68.078125 -20.4375 C 69.628906 -21.53125 70.976562 -22.523438 72.125 -23.421875 C 73.269531 -24.316406 74.554688 -24.765625 75.984375 -24.765625 C 77.847656 -24.765625 79.25 -24.050781 80.1875 -22.625 L 86.796875 -14.25 C 84.242188 -11.269531 81.476562 -8.769531 78.5 -6.75 C 75.519531 -4.726562 72.429688 -3.113281 69.234375 -1.90625 C 66.035156 -0.695312 62.742188 0.148438 59.359375 0.640625 C 55.984375 1.140625 52.617188 1.390625 49.265625 1.390625 C 43.367188 1.390625 37.8125 0.289062 32.59375 -1.90625 C 27.375 -4.113281 22.804688 -7.328125 18.890625 -11.546875 C 14.984375 -15.765625 11.894531 -20.929688 9.625 -27.046875 C 7.363281 -33.160156 6.234375 -40.128906 6.234375 -47.953125 C 6.234375 -54.972656 7.242188 -61.476562 9.265625 -67.46875 C 11.285156 -73.457031 14.25 -78.640625 18.15625 -83.015625 C 22.070312 -87.398438 26.914062 -90.832031 32.6875 -93.3125 C 38.457031 -95.789062 45.097656 -97.03125 52.609375 -97.03125 C 59.753906 -97.03125 66.007812 -95.878906 71.375 -93.578125 C 76.75 -91.285156 81.578125 -88 85.859375 -83.71875 Z M 79.8125 -75.34375 "/></g></g></g><g fill="#ffffff" fill-opacity="1"><g transform="translate(325.932786, 184.204747)"><g><path d="M 40.140625 0 L 15 0 L 15 -134.65625 L 40.140625 -134.65625 Z M 40.140625 0 "/></g></g></g><g fill="#ffffff" fill-opacity="1"><g transform="translate(381.154895, 184.204747)"><g><path d="M 128.515625 -134.65625 L 128.515625 0 L 115.65625 0 C 113.675781 0 112.015625 -0.320312 110.671875 -0.96875 C 109.335938 -1.625 108.050781 -2.726562 106.8125 -4.28125 L 36.5 -94.0625 C 36.875 -89.957031 37.0625 -86.164062 37.0625 -82.6875 L 37.0625 0 L 15 0 L 15 -134.65625 L 28.125 -134.65625 C 29.175781 -134.65625 30.085938 -134.609375 30.859375 -134.515625 C 31.640625 -134.421875 32.320312 -134.234375 32.90625 -133.953125 C 33.5 -133.679688 34.078125 -133.28125 34.640625 -132.75 C 35.203125 -132.21875 35.820312 -131.519531 36.5 -130.65625 L 107.09375 -40.515625 C 106.90625 -42.679688 106.75 -44.816406 106.625 -46.921875 C 106.5 -49.035156 106.4375 -50.992188 106.4375 -52.796875 L 106.4375 -134.65625 Z M 128.515625 -134.65625 "/></g></g></g></g></g><g clip-path="url(#606f2f9876)"><g clip-path="url(#ef862f9b9c)"><g transform="matrix(1, 0, 0, 1, 559, 111)"><g clip-path="url(#bb40842484)"><g clip-path="url(#cb516974ab)"><g clip-path="url(#d804a38c65)"><path fill="#ffbd59" d="M 133.996094 0.753906 L 133.996094 152.253906 L 0.914062 152.253906 L 0.914062 0.753906 Z M 133.996094 0.753906 " fill-opacity="1" fill-rule="nonzero"/></g></g></g></g></g></g></svg>